<svg width="18" height="16" viewBox="0 0 18 16" fill="none" xmlns="http://www.w3.org/2000/svg">
<path id="Vector" d="M17.659 5.28333C17.7961 5.15417 18 5.275 18 5.47917V14C18 15.1042 17.2441 16 16.3125 16H1.6875C0.755859 16 0 15.1042 0 14V5.48333C0 5.275 0.200391 5.15833 0.341016 5.2875C1.12852 6.0125 2.17266 6.93333 5.75859 10.0208C6.50039 10.6625 7.75195 12.0125 9 12.0042C10.2551 12.0167 11.5312 10.6375 12.2449 10.0208C15.8309 6.93333 16.8715 6.00833 17.659 5.28333ZM9 10.6667C9.81563 10.6833 10.9898 9.45 11.5805 8.94167C16.2457 4.92917 16.6008 4.57917 17.6766 3.57917C17.8805 3.39167 18 3.1 18 2.79167V2C18 0.895833 17.2441 0 16.3125 0H1.6875C0.755859 0 0 0.895833 0 2V2.79167C0 3.1 0.119531 3.3875 0.323437 3.57917C1.39922 4.575 1.7543 4.92917 6.41953 8.94167C7.01016 9.45 8.18437 10.6833 9 10.6667Z" fill="#FFC702"/>
</svg>
