<svg width="150" height="48" viewBox="0 0 150 48" fill="none" xmlns="http://www.w3.org/2000/svg">
<g id="shape">
<g id="1">
<g id="Star 1" filter="url(#filter0_f_339_877)">
<path d="M101.5 6L102.175 7.82477L104 8.5L102.175 9.17523L101.5 11L100.825 9.17523L99 8.5L100.825 7.82477L101.5 6Z" fill="white"/>
</g>
<path id="Star 2" d="M101.5 6L102.175 7.82477L104 8.5L102.175 9.17523L101.5 11L100.825 9.17523L99 8.5L100.825 7.82477L101.5 6Z" fill="white"/>
</g>
<g id="2">
<g id="Star 1_2" filter="url(#filter1_f_339_877)">
<path d="M144.5 18L145.445 20.5547L148 21.5L145.445 22.4453L144.5 25L143.555 22.4453L141 21.5L143.555 20.5547L144.5 18Z" fill="white"/>
</g>
<path id="Star 2_2" d="M144.5 18L145.445 20.5547L148 21.5L145.445 22.4453L144.5 25L143.555 22.4453L141 21.5L143.555 20.5547L144.5 18Z" fill="white"/>
</g>
<g id="3">
<g id="Star 1_3" filter="url(#filter2_f_339_877)">
<path d="M9 2L10.8906 7.10936L16 9L10.8906 10.8906L9 16L7.10936 10.8906L2 9L7.10936 7.10936L9 2Z" fill="white"/>
</g>
<path id="Star 2_3" d="M9 2L10.8906 7.10936L16 9L10.8906 10.8906L9 16L7.10936 10.8906L2 9L7.10936 7.10936L9 2Z" fill="white"/>
</g>
<g id="4">
<g id="Star 1_4" filter="url(#filter3_f_339_877)">
<path d="M51.5 37L52.7154 40.2846L56 41.5L52.7154 42.7154L51.5 46L50.2846 42.7154L47 41.5L50.2846 40.2846L51.5 37Z" fill="white"/>
</g>
<path id="Star 2_4" d="M51.5 37L52.7154 40.2846L56 41.5L52.7154 42.7154L51.5 46L50.2846 42.7154L47 41.5L50.2846 40.2846L51.5 37Z" fill="white"/>
</g>
</g>
<defs>
<filter id="filter0_f_339_877" x="97" y="4" width="9" height="9" filterUnits="userSpaceOnUse" color-interpolation-filters="sRGB">
<feFlood flood-opacity="0" result="BackgroundImageFix"/>
<feBlend mode="normal" in="SourceGraphic" in2="BackgroundImageFix" result="shape"/>
<feGaussianBlur stdDeviation="1" result="effect1_foregroundBlur_339_877"/>
</filter>
<filter id="filter1_f_339_877" x="139" y="16" width="11" height="11" filterUnits="userSpaceOnUse" color-interpolation-filters="sRGB">
<feFlood flood-opacity="0" result="BackgroundImageFix"/>
<feBlend mode="normal" in="SourceGraphic" in2="BackgroundImageFix" result="shape"/>
<feGaussianBlur stdDeviation="1" result="effect1_foregroundBlur_339_877"/>
</filter>
<filter id="filter2_f_339_877" x="0" y="0" width="18" height="18" filterUnits="userSpaceOnUse" color-interpolation-filters="sRGB">
<feFlood flood-opacity="0" result="BackgroundImageFix"/>
<feBlend mode="normal" in="SourceGraphic" in2="BackgroundImageFix" result="shape"/>
<feGaussianBlur stdDeviation="1" result="effect1_foregroundBlur_339_877"/>
</filter>
<filter id="filter3_f_339_877" x="45" y="35" width="13" height="13" filterUnits="userSpaceOnUse" color-interpolation-filters="sRGB">
<feFlood flood-opacity="0" result="BackgroundImageFix"/>
<feBlend mode="normal" in="SourceGraphic" in2="BackgroundImageFix" result="shape"/>
<feGaussianBlur stdDeviation="1" result="effect1_foregroundBlur_339_877"/>
</filter>
</defs>
</svg>
