<svg width="173" height="220" viewBox="0 0 173 220" fill="none" xmlns="http://www.w3.org/2000/svg">
<g id="Objects" clip-path="url(#clip0_389_518)">
<path id="Vector" d="M162.439 208.431C151.307 213.906 129.302 220 86.5028 220C43.7041 220 21.6985 213.906 10.5722 208.431C3.7308 205.074 -0.400399 198.245 0.03302 190.966C0.916317 175.952 3.78017 146.451 12.8271 136.868C19.9374 129.342 42.0966 119.128 56.9097 112.847C65.3366 120.258 75.4863 123.555 86.5028 123.555C97.5194 123.555 107.669 120.258 116.096 112.847C130.915 119.134 153.074 129.342 160.179 136.868C169.226 146.451 172.089 175.952 172.973 190.966C173.401 198.245 169.269 205.074 162.439 208.431Z" fill="#428FE2"/>
<path id="Vector_2" d="M132.517 53.0938C132.517 83.4284 116.25 116.166 86.503 116.166C56.7562 116.166 40.4893 83.4284 40.4893 53.0938C40.4893 22.7592 57.25 0 86.503 0C118.713 0 132.517 22.7647 132.517 53.0938Z" fill="#428FE2"/>
</g>
<defs>
<clipPath id="clip0_389_518">
<rect width="173" height="220" fill="white"/>
</clipPath>
</defs>
</svg>
